<?xml version="1.0" encoding="utf-8"?>
<!-- Generator: Adobe Illustrator 17.0.0, SVG Export Plug-In . SVG Version: 6.00 Build 0)  -->
<!DOCTYPE svg PUBLIC "-//W3C//DTD SVG 1.1//EN" "http://www.w3.org/Graphics/SVG/1.1/DTD/svg11.dtd">
<svg version="1.1" id="Layer_1" xmlns="http://www.w3.org/2000/svg" xmlns:xlink="http://www.w3.org/1999/xlink" x="0px" y="0px"
	 width="330.573px" height="65.931px" viewBox="0 0 330.573 65.931" enable-background="new 0 0 330.573 65.931"
	 xml:space="preserve">
<path fill="#FFFFFF" d="M23.362,19.544l1.059,0.151c-0.253,1.034-0.448,2.054-0.586,3.061c-0.139,1.009-0.258,2.03-0.359,3.062
	c-1.109,0.479-2.395,0.882-3.856,1.21c-1.462,0.327-3.062,0.491-4.801,0.491c-2.117,0-4.083-0.29-5.898-0.869
	s-3.383-1.455-4.706-2.627c-1.323-1.172-2.357-2.647-3.1-4.424C0.371,17.824,0,15.751,0,13.382c0-2.116,0.397-4.006,1.191-5.671
	C1.984,6.048,3.055,4.65,4.403,3.515s2.904-2.004,4.669-2.608C10.836,0.302,12.689,0,14.629,0c1.108,0,2.054,0.075,2.835,0.226
	c0.781,0.151,1.513,0.328,2.193,0.53c0.68,0.202,1.36,0.41,2.042,0.624c0.68,0.214,1.461,0.384,2.343,0.51
	c-0.025,1.058-0.013,2.111,0.038,3.156c0.051,1.046,0.138,2.098,0.265,3.156l-1.134,0.151c-0.252-0.907-0.573-1.77-0.964-2.59
	c-0.391-0.819-0.907-1.531-1.551-2.136c-0.642-0.605-1.443-1.084-2.401-1.437c-0.958-0.353-2.142-0.529-3.553-0.529
	c-1.538,0-2.898,0.29-4.083,0.869s-2.174,1.38-2.967,2.401S6.3,7.163,5.897,8.562c-0.403,1.398-0.605,2.929-0.605,4.593
	c0,1.587,0.201,3.137,0.605,4.65c0.403,1.512,1.034,2.867,1.89,4.064c0.856,1.197,1.934,2.162,3.232,2.892
	c1.299,0.732,2.842,1.096,4.631,1.096c2.042,0,3.711-0.58,5.009-1.739C21.957,22.959,22.857,21.434,23.362,19.544z M48.374,25.307
	h0.198v0.985c-0.745-0.043-1.49-0.077-2.234-0.099c-0.745-0.021-1.511-0.032-2.299-0.032c-0.81,0-1.625,0.011-2.446,0.032
	c-0.821,0.022-1.648,0.055-2.48,0.099v-0.985h0.362c0.197,0,0.41-0.011,0.64-0.033c0.23-0.021,0.449-0.066,0.657-0.131
	c0.208-0.066,0.383-0.164,0.525-0.296c0.142-0.131,0.214-0.295,0.214-0.492c0-0.219-0.066-0.536-0.198-0.952
	c-0.131-0.415-0.284-0.887-0.46-1.412l-1.281-3.81h-7.455l-1.05,3.416c-0.175,0.569-0.34,1.062-0.493,1.478
	c-0.153,0.416-0.23,0.777-0.23,1.084c0,0.242,0.077,0.438,0.23,0.592s0.35,0.268,0.591,0.344c0.241,0.078,0.509,0.132,0.805,0.164
	c0.295,0.033,0.575,0.05,0.837,0.05h0.362v0.985c-0.657-0.043-1.32-0.077-1.987-0.099c-0.668-0.021-1.33-0.032-1.986-0.032
	c-0.592,0-1.182,0.011-1.774,0.032c-0.591,0.022-1.182,0.055-1.773,0.099v-0.985h0.197c0.635,0,1.21-0.181,1.724-0.543
	c0.514-0.361,0.892-0.892,1.133-1.592l5.254-15.073c0.219-0.613,0.449-1.291,0.689-2.036c0.241-0.744,0.415-1.423,0.525-2.036
	c0.526-0.175,1.078-0.405,1.659-0.689c0.58-0.284,1.024-0.526,1.33-0.723c0.132-0.043,0.219-0.066,0.263-0.066
	c0.109,0,0.186,0.032,0.23,0.098c0.043,0.132,0.093,0.269,0.148,0.411c0.054,0.143,0.103,0.28,0.148,0.411l6.042,17.175
	c0.198,0.569,0.394,1.144,0.592,1.724c0.197,0.581,0.404,1.122,0.624,1.625C46.579,24.869,47.302,25.307,48.374,25.307z
	 M38.884,16.342l-3.021-9.294h-0.066l-3.054,9.294H38.884z M61.493,14.568c-0.734-0.569-1.527-1.05-2.381-1.444
	c-0.854-0.394-1.647-0.805-2.38-1.231c-0.734-0.427-1.342-0.925-1.823-1.494c-0.482-0.569-0.723-1.302-0.723-2.2
	c0-1.314,0.345-2.332,1.035-3.054c0.689-0.723,1.691-1.084,3.005-1.084c0.569,0,1.078,0.115,1.527,0.345
	c0.449,0.23,0.838,0.542,1.166,0.936c0.329,0.394,0.592,0.843,0.788,1.347c0.198,0.504,0.329,1.018,0.394,1.543l0.92-0.164
	c-0.11-0.788-0.192-1.576-0.246-2.365c-0.055-0.788-0.082-1.564-0.082-2.331c-0.263-0.043-0.614-0.092-1.051-0.148
	c-0.438-0.054-0.892-0.103-1.362-0.148c-0.472-0.043-0.915-0.088-1.33-0.131c-0.416-0.044-0.745-0.066-0.986-0.066
	c-1.051,0-2.025,0.154-2.923,0.461s-1.664,0.749-2.298,1.33c-0.636,0.58-1.133,1.292-1.494,2.134
	c-0.362,0.844-0.542,1.802-0.542,2.874c0,1.313,0.24,2.387,0.722,3.218c0.482,0.832,1.078,1.527,1.791,2.085
	c0.711,0.558,1.482,1.04,2.315,1.445c0.832,0.405,1.603,0.826,2.316,1.264c0.711,0.437,1.308,0.958,1.79,1.56
	c0.481,0.602,0.723,1.384,0.723,2.348c0,0.591-0.104,1.117-0.313,1.576c-0.208,0.46-0.497,0.848-0.869,1.166
	c-0.373,0.317-0.8,0.564-1.281,0.738c-0.482,0.176-1.007,0.263-1.576,0.263c-0.788,0-1.478-0.142-2.069-0.426
	c-0.591-0.284-1.095-0.663-1.51-1.133c-0.416-0.471-0.745-1.024-0.986-1.659s-0.416-1.302-0.525-2.003l-0.919,0.197
	c0.087,0.832,0.18,1.664,0.279,2.496c0.099,0.832,0.191,1.664,0.279,2.497c0.81,0.415,1.653,0.766,2.529,1.05
	c0.876,0.284,1.774,0.427,2.693,0.427c1.051,0,2.057-0.148,3.021-0.444c0.964-0.295,1.806-0.733,2.529-1.313
	c0.723-0.58,1.302-1.297,1.741-2.15c0.437-0.855,0.657-1.85,0.657-2.988c0-1.314-0.242-2.387-0.723-3.218
	C62.834,15.838,62.227,15.138,61.493,14.568z M70.972,3.501c-0.809,0-1.664-0.021-2.561-0.066c-0.898-0.043-1.664-0.066-2.299-0.066
	v0.986h0.461c0.305,0,0.602,0.016,0.886,0.049C67.742,4.437,68,4.52,68.23,4.651c0.23,0.131,0.416,0.317,0.558,0.558
	c0.142,0.241,0.214,0.581,0.214,1.018v17.207c0,0.416-0.072,0.75-0.214,1.002c-0.142,0.252-0.329,0.443-0.558,0.574
	c-0.23,0.132-0.487,0.214-0.772,0.246c-0.284,0.033-0.581,0.05-0.886,0.05h-0.461v0.985c0.635,0,1.396-0.021,2.282-0.066
	c0.887-0.043,1.735-0.066,2.545-0.066c0.832,0,1.707,0.022,2.627,0.066c0.92,0.044,1.774,0.066,2.562,0.066v-0.985h-0.46
	c-0.285,0-0.575-0.017-0.87-0.05c-0.296-0.032-0.558-0.114-0.788-0.246c-0.23-0.131-0.416-0.322-0.558-0.574
	c-0.143-0.252-0.213-0.586-0.213-1.002V6.227c0-0.437,0.07-0.777,0.213-1.018c0.142-0.241,0.329-0.427,0.558-0.558
	s0.492-0.213,0.788-0.246c0.295-0.033,0.585-0.049,0.87-0.049h0.46V3.37c-0.767,0-1.61,0.022-2.529,0.066
	C72.68,3.479,71.804,3.501,70.972,3.501z M99.711,3.501c-0.766,0-1.532-0.021-2.298-0.066C96.646,3.392,95.88,3.37,95.114,3.37
	v0.986h0.723c0.241,0,0.525,0.032,0.854,0.098c0.329,0.066,0.641,0.209,0.936,0.427s0.547,0.531,0.755,0.936
	c0.209,0.405,0.312,0.947,0.312,1.625v12.315l-0.066,0.066L84.014,3.37c-0.503,0-0.99,0.022-1.461,0.066
	c-0.471,0.044-0.958,0.066-1.461,0.066c-0.636,0-1.264-0.021-1.888-0.066C78.58,3.392,77.95,3.37,77.315,3.37v0.986h0.426
	c0.373,0,0.739,0.066,1.1,0.197c0.362,0.131,0.678,0.329,0.952,0.592c0.274,0.262,0.498,0.574,0.674,0.936
	c0.174,0.361,0.262,0.772,0.262,1.231v13.826c0,1.313-0.208,2.337-0.624,3.071s-1.193,1.1-2.331,1.1h-0.46v0.985
	c0.744,0,1.489-0.021,2.233-0.066c0.745-0.043,1.489-0.066,2.234-0.066c0.701,0,1.407,0.022,2.118,0.066
	c0.712,0.044,1.418,0.066,2.118,0.066v-0.985h-0.558c-0.635,0-1.149-0.066-1.543-0.198c-0.394-0.131-0.706-0.35-0.936-0.657
	c-0.23-0.305-0.389-0.7-0.476-1.181c-0.088-0.482-0.132-1.084-0.132-1.806V7.934l16.913,18.85h1.248
	c-0.088-0.504-0.143-1.04-0.164-1.61c-0.022-0.569-0.033-1.138-0.033-1.707V8.525c0-0.985,0.088-1.751,0.263-2.298
	c0.175-0.547,0.405-0.964,0.689-1.248s0.596-0.46,0.936-0.526c0.34-0.066,0.684-0.098,1.035-0.098h0.493V3.37
	c-0.679,0-1.352,0.022-2.019,0.066C101.063,3.479,100.39,3.501,99.711,3.501z M128.878,9.478c0.656,1.402,0.985,2.978,0.985,4.729
	c0,1.883-0.317,3.596-0.952,5.14c-0.635,1.543-1.51,2.868-2.627,3.973c-1.117,1.106-2.43,1.959-3.941,2.561
	s-3.142,0.904-4.892,0.904c-1.731,0-3.345-0.285-4.844-0.854c-1.5-0.569-2.802-1.369-3.908-2.398
	c-1.106-1.029-1.97-2.266-2.594-3.711c-0.624-1.444-0.936-3.054-0.936-4.827c0-1.707,0.312-3.3,0.936-4.778
	c0.624-1.478,1.478-2.759,2.562-3.842c1.084-1.084,2.364-1.937,3.842-2.561c1.478-0.625,3.07-0.937,4.778-0.937
	c1.751,0,3.393,0.263,4.926,0.788c1.532,0.526,2.862,1.276,3.99,2.25C127.329,6.889,128.221,8.078,128.878,9.478z M125.266,14.929
	c0-1.204-0.164-2.43-0.493-3.678c-0.329-1.248-0.826-2.387-1.494-3.416c-0.668-1.028-1.505-1.872-2.512-2.529
	c-1.007-0.656-2.189-0.985-3.547-0.985c-1.444,0-2.643,0.291-3.596,0.87c-0.952,0.581-1.713,1.33-2.282,2.249
	c-0.569,0.92-0.974,1.944-1.215,3.071c-0.241,1.128-0.362,2.239-0.362,3.334c0,1.467,0.17,2.89,0.509,4.269
	c0.339,1.38,0.843,2.605,1.511,3.678c0.667,1.073,1.499,1.933,2.496,2.578c0.996,0.646,2.162,0.969,3.497,0.969
	c1.599,0,2.884-0.317,3.859-0.952c0.974-0.634,1.73-1.455,2.266-2.462c0.536-1.007,0.898-2.124,1.084-3.35
	C125.173,17.348,125.266,16.134,125.266,14.929z M162.549,24.118c-1.299,1.159-2.968,1.739-5.009,1.739
	c-1.791,0-3.334-0.365-4.631-1.096c-1.299-0.73-2.376-1.695-3.232-2.892c-0.857-1.197-1.488-2.552-1.89-4.064
	c-0.403-1.513-0.605-3.062-0.605-4.65c0-1.664,0.201-3.195,0.605-4.593c0.402-1.399,1.001-2.608,1.795-3.629
	c0.795-1.021,1.783-1.821,2.968-2.401c1.184-0.58,2.545-0.869,4.083-0.869c1.41,0,2.595,0.176,3.553,0.529
	c0.957,0.353,1.757,0.832,2.401,1.437c0.642,0.605,1.158,1.317,1.55,2.136c0.39,0.82,0.712,1.683,0.964,2.59l1.133-0.151
	c-0.126-1.059-0.214-2.111-0.264-3.156c-0.051-1.046-0.064-2.099-0.038-3.156c-0.882-0.126-1.664-0.296-2.344-0.51
	s-1.36-0.422-2.042-0.624c-0.68-0.202-1.411-0.378-2.192-0.53C158.573,0.075,157.628,0,156.519,0c-1.941,0-3.793,0.302-5.557,0.907
	c-1.765,0.605-3.322,1.474-4.669,2.608c-1.348,1.134-2.419,2.533-3.214,4.196c-0.794,1.664-1.191,3.554-1.191,5.671
	c0,2.369,0.372,4.442,1.115,6.219c0.744,1.777,1.778,3.252,3.1,4.424c1.323,1.171,2.892,2.047,4.707,2.627
	c1.814,0.58,3.78,0.869,5.897,0.869c1.74,0,3.339-0.164,4.801-0.491c1.462-0.328,2.747-0.731,3.856-1.21
	c0.101-1.033,0.221-2.054,0.359-3.062c0.138-1.007,0.334-2.028,0.586-3.061l-1.059-0.151
	C164.747,21.434,163.846,22.959,162.549,24.118z M190.264,25.307h0.197v0.985c-0.745-0.043-1.489-0.077-2.233-0.099
	c-0.745-0.021-1.511-0.032-2.299-0.032c-0.81,0-1.625,0.011-2.447,0.032c-0.821,0.022-1.647,0.055-2.479,0.099v-0.985h0.361
	c0.197,0,0.411-0.011,0.641-0.033c0.23-0.021,0.449-0.066,0.656-0.131c0.209-0.066,0.383-0.164,0.526-0.296
	c0.142-0.131,0.213-0.295,0.213-0.492c0-0.219-0.066-0.536-0.197-0.952c-0.132-0.415-0.285-0.887-0.461-1.412l-1.28-3.81h-7.455
	l-1.051,3.416c-0.175,0.569-0.34,1.062-0.493,1.478c-0.153,0.416-0.23,0.777-0.23,1.084c0,0.242,0.077,0.438,0.23,0.592
	s0.351,0.268,0.592,0.344c0.241,0.078,0.509,0.132,0.805,0.164c0.295,0.033,0.574,0.05,0.837,0.05h0.361v0.985
	c-0.656-0.043-1.319-0.077-1.986-0.099c-0.668-0.021-1.33-0.032-1.987-0.032c-0.591,0-1.182,0.011-1.773,0.032
	c-0.592,0.022-1.182,0.055-1.774,0.099v-0.985h0.198c0.634,0,1.209-0.181,1.724-0.543c0.514-0.361,0.892-0.892,1.132-1.592
	l5.254-15.073c0.219-0.613,0.449-1.291,0.69-2.036c0.24-0.744,0.415-1.423,0.525-2.036c0.525-0.175,1.078-0.405,1.659-0.689
	c0.58-0.284,1.023-0.526,1.33-0.723c0.131-0.043,0.219-0.066,0.262-0.066c0.11,0,0.186,0.032,0.23,0.098
	c0.044,0.132,0.093,0.269,0.149,0.411c0.054,0.143,0.103,0.28,0.148,0.411l6.042,17.175c0.197,0.569,0.394,1.144,0.591,1.724
	c0.198,0.581,0.405,1.122,0.624,1.625C188.468,24.869,189.191,25.307,190.264,25.307z M180.773,16.342l-3.022-9.294h-0.066
	l-3.054,9.294H180.773z M213.978,3.501c-0.767,0-1.533-0.021-2.299-0.066c-0.766-0.043-1.532-0.066-2.298-0.066v0.986h0.722
	c0.241,0,0.526,0.032,0.854,0.098c0.329,0.066,0.641,0.209,0.936,0.427c0.296,0.219,0.547,0.531,0.756,0.936
	c0.208,0.405,0.312,0.947,0.312,1.625v12.315l-0.066,0.066L198.281,3.37c-0.504,0-0.991,0.022-1.461,0.066
	c-0.472,0.044-0.958,0.066-1.462,0.066c-0.635,0-1.264-0.021-1.888-0.066c-0.624-0.043-1.253-0.066-1.888-0.066v0.986h0.427
	c0.372,0,0.739,0.066,1.1,0.197c0.361,0.131,0.678,0.329,0.952,0.592c0.273,0.262,0.497,0.574,0.673,0.936
	c0.175,0.361,0.263,0.772,0.263,1.231v13.826c0,1.313-0.209,2.337-0.624,3.071c-0.416,0.734-1.193,1.1-2.331,1.1h-0.461v0.985
	c0.745,0,1.489-0.021,2.234-0.066c0.744-0.043,1.489-0.066,2.233-0.066c0.701,0,1.407,0.022,2.118,0.066
	c0.712,0.044,1.418,0.066,2.118,0.066v-0.985h-0.557c-0.636,0-1.15-0.066-1.544-0.198c-0.394-0.131-0.706-0.35-0.936-0.657
	c-0.23-0.305-0.389-0.7-0.476-1.181s-0.131-1.084-0.131-1.806V7.934l16.912,18.85h1.248c-0.088-0.504-0.142-1.04-0.163-1.61
	c-0.022-0.569-0.033-1.138-0.033-1.707V8.525c0-0.985,0.087-1.751,0.263-2.298c0.174-0.547,0.404-0.964,0.689-1.248
	c0.284-0.284,0.596-0.46,0.936-0.526c0.339-0.066,0.684-0.098,1.035-0.098h0.492V3.37c-0.678,0-1.352,0.022-2.019,0.066
	C215.329,3.479,214.657,3.501,213.978,3.501z M238.038,17.179c0.427,0.756,0.641,1.625,0.641,2.611c0,0.876-0.202,1.707-0.607,2.496
	s-0.958,1.478-1.659,2.069c-0.701,0.591-1.522,1.062-2.463,1.412c-0.941,0.35-1.948,0.525-3.021,0.525
	c-0.832,0-1.741-0.021-2.725-0.066c-0.986-0.043-1.993-0.066-3.022-0.066c-0.504,0-1.024,0.006-1.56,0.016
	c-0.536,0.012-1.062,0.028-1.576,0.05c-0.514,0.022-1.001,0.039-1.461,0.049c-0.46,0.011-0.866,0.017-1.215,0.017v-0.985h0.46
	c0.306,0,0.603-0.017,0.887-0.05c0.284-0.032,0.542-0.114,0.772-0.246c0.23-0.131,0.416-0.322,0.558-0.574
	c0.142-0.252,0.213-0.586,0.213-1.002V6.227c0-0.437-0.071-0.777-0.213-1.018c-0.142-0.241-0.329-0.427-0.558-0.558
	s-0.487-0.213-0.772-0.246c-0.284-0.033-0.581-0.049-0.887-0.049h-0.46V3.37c0.723,0,1.527,0.022,2.414,0.066
	c0.886,0.044,1.79,0.066,2.709,0.066c0.941,0,1.861-0.021,2.759-0.066c0.897-0.043,1.729-0.066,2.496-0.066
	c1.379,0,2.55,0.138,3.514,0.411c0.964,0.274,1.746,0.641,2.348,1.1s1.04,1.001,1.314,1.625c0.273,0.624,0.41,1.298,0.41,2.019
	c0,0.832-0.175,1.555-0.525,2.168c-0.351,0.613-0.81,1.132-1.379,1.56c-0.57,0.427-1.21,0.767-1.922,1.018
	c-0.712,0.252-1.429,0.443-2.15,0.575v0.066c0.897-0.022,1.784,0.082,2.66,0.312c0.875,0.23,1.658,0.591,2.348,1.084
	C237.053,15.8,237.611,16.424,238.038,17.179z M226.462,13.419h1.609c1.401,0,2.562-0.329,3.481-0.985
	c0.919-0.657,1.379-1.752,1.379-3.285c0-0.94-0.131-1.712-0.394-2.315c-0.262-0.602-0.602-1.072-1.018-1.412
	c-0.415-0.339-0.892-0.569-1.428-0.689c-0.537-0.12-1.09-0.181-1.659-0.181h-1.97V13.419z M234.278,19.921
	c0-0.919-0.142-1.713-0.426-2.38c-0.285-0.668-0.685-1.221-1.199-1.659c-0.515-0.438-1.117-0.761-1.806-0.969
	c-0.689-0.208-1.451-0.312-2.282-0.312h-2.102v7.718c0,0.569,0.032,1.034,0.099,1.395c0.066,0.361,0.208,0.646,0.426,0.854
	c0.219,0.209,0.52,0.351,0.904,0.427c0.382,0.077,0.892,0.114,1.527,0.114c0.701,0,1.347-0.131,1.938-0.394
	c0.591-0.263,1.105-0.629,1.543-1.1c0.437-0.471,0.777-1.023,1.018-1.659C234.158,21.323,234.278,20.643,234.278,19.921z
	 M257.381,23.057c-0.362,0.537-0.805,0.936-1.33,1.199c-0.525,0.263-1.15,0.427-1.872,0.493c-0.723,0.066-1.576,0.098-2.562,0.098
	c-0.525,0-1.029-0.01-1.51-0.032c-0.482-0.022-0.909-0.099-1.281-0.23c-0.373-0.132-0.668-0.345-0.887-0.641
	c-0.219-0.295-0.329-0.706-0.329-1.231v-7.652h3.941c0.569,0,1.012,0.078,1.33,0.23c0.317,0.153,0.558,0.373,0.723,0.657
	c0.164,0.284,0.279,0.624,0.345,1.018c0.066,0.394,0.12,0.843,0.164,1.347l0.985-0.198c-0.066-1.248-0.099-2.496-0.099-3.743
	c0-1.291,0.033-2.572,0.099-3.842h-0.985c-0.089,0.876-0.296,1.576-0.625,2.102c-0.328,0.525-0.985,0.788-1.97,0.788h-3.909V4.815
	h4.565c0.854,0,1.538,0.098,2.053,0.295c0.514,0.197,0.908,0.471,1.182,0.821c0.273,0.35,0.46,0.761,0.558,1.231
	s0.169,0.968,0.213,1.494l0.986-0.263c-0.022-0.372-0.044-0.772-0.066-1.199c-0.021-0.426-0.032-0.864-0.032-1.313
	c0-0.449,0-0.892,0-1.33c0-0.437,0.011-0.832,0.032-1.182c-0.547,0-1.166,0.006-1.855,0.017s-1.407,0.028-2.151,0.049
	c-0.744,0.022-1.489,0.039-2.233,0.05c-0.745,0.011-1.467,0.016-2.167,0.016c-0.679,0-1.396-0.005-2.151-0.016
	c-0.755-0.011-1.494-0.028-2.217-0.05c-0.723-0.021-1.412-0.038-2.068-0.049c-0.657-0.011-1.238-0.017-1.741-0.017v0.986h0.46
	c0.306,0,0.602,0.016,0.887,0.049c0.284,0.033,0.542,0.115,0.772,0.246s0.415,0.317,0.558,0.558
	c0.142,0.241,0.213,0.581,0.213,1.018v17.207c0,0.416-0.071,0.75-0.213,1.002c-0.143,0.252-0.329,0.443-0.558,0.574
	c-0.23,0.132-0.487,0.214-0.772,0.246c-0.285,0.033-0.581,0.05-0.887,0.05h-0.46v0.985c0.46,0,1.039-0.006,1.741-0.017
	c0.7-0.01,1.444-0.027,2.233-0.049c0.788-0.022,1.593-0.038,2.413-0.05c0.821-0.01,1.604-0.016,2.348-0.016
	c0.745,0,1.522,0.006,2.332,0.016c0.809,0.012,1.609,0.028,2.397,0.05c0.788,0.022,1.538,0.039,2.25,0.049
	c0.711,0.011,1.33,0.017,1.855,0.017c0.153-0.875,0.323-1.745,0.509-2.611c0.186-0.865,0.389-1.734,0.608-2.61l-0.92-0.231
	C258.042,21.782,257.741,22.521,257.381,23.057z M282.376,25.109c0.295,0.088,0.641,0.153,1.035,0.198v0.985
	c-0.547,0-1.084-0.021-1.61-0.066c-0.525-0.043-1.062-0.066-1.609-0.066c-0.504,0-1.018,0.022-1.544,0.066
	c-0.525,0.044-1.04,0.066-1.543,0.066c-1.27-1.663-2.458-3.377-3.563-5.139c-1.107-1.763-2.196-3.597-3.268-5.501h-2.167v7.027
	c0,0.635,0.071,1.128,0.213,1.478c0.142,0.351,0.333,0.614,0.575,0.788c0.24,0.175,0.525,0.28,0.854,0.312
	c0.329,0.033,0.678,0.05,1.05,0.05h0.592v0.985c-0.941,0-1.883-0.021-2.824-0.066c-0.941-0.043-1.883-0.066-2.824-0.066
	c-0.788,0-1.571,0.022-2.348,0.066c-0.777,0.044-1.582,0.066-2.413,0.066v-0.985h0.591c0.613,0,1.155-0.142,1.625-0.427
	c0.471-0.284,0.706-0.733,0.706-1.347V6.851c0-0.592-0.071-1.056-0.213-1.395c-0.142-0.34-0.329-0.592-0.558-0.756
	c-0.23-0.164-0.482-0.262-0.755-0.295c-0.274-0.033-0.542-0.049-0.805-0.049h-0.591V3.37c0.525,0,1.252,0.022,2.184,0.066
	c0.93,0.044,1.898,0.066,2.906,0.066c0.985,0,1.893-0.021,2.725-0.066c0.832-0.043,1.685-0.066,2.561-0.066
	c1.029,0,2.014,0.082,2.956,0.246c0.94,0.164,1.773,0.46,2.496,0.887c0.723,0.426,1.297,1.018,1.724,1.773
	c0.426,0.755,0.641,1.713,0.641,2.873c0,0.745-0.115,1.413-0.345,2.004c-0.23,0.591-0.553,1.128-0.969,1.609
	c-0.415,0.483-0.897,0.898-1.444,1.249c-0.547,0.35-1.149,0.656-1.806,0.919l5.615,8.407c0.241,0.35,0.465,0.641,0.674,0.87
	c0.208,0.23,0.432,0.415,0.673,0.557C281.812,24.907,282.08,25.023,282.376,25.109z M274.445,11.777
	c0.219-0.657,0.329-1.467,0.329-2.43c0-1.467-0.433-2.632-1.298-3.497s-2.03-1.298-3.497-1.298c-0.504,0-0.881,0.017-1.133,0.049
	c-0.252,0.033-0.497,0.061-0.738,0.082v9.787h1.609c0.832,0,1.56-0.088,2.184-0.263c0.624-0.175,1.15-0.46,1.576-0.854
	C273.903,12.959,274.226,12.434,274.445,11.777z M305.697,25.109c0.295,0.088,0.641,0.153,1.035,0.198v0.985
	c-0.547,0-1.084-0.021-1.61-0.066c-0.525-0.043-1.062-0.066-1.609-0.066c-0.504,0-1.018,0.022-1.544,0.066
	c-0.525,0.044-1.04,0.066-1.543,0.066c-1.27-1.663-2.458-3.377-3.563-5.139c-1.107-1.763-2.196-3.597-3.268-5.501h-2.167v7.027
	c0,0.635,0.071,1.128,0.213,1.478c0.142,0.351,0.333,0.614,0.575,0.788c0.24,0.175,0.525,0.28,0.854,0.312
	c0.329,0.033,0.678,0.05,1.05,0.05h0.592v0.985c-0.941,0-1.883-0.021-2.824-0.066c-0.941-0.043-1.883-0.066-2.824-0.066
	c-0.788,0-1.571,0.022-2.348,0.066c-0.777,0.044-1.582,0.066-2.413,0.066v-0.985h0.591c0.613,0,1.155-0.142,1.625-0.427
	c0.471-0.284,0.706-0.733,0.706-1.347V6.851c0-0.592-0.071-1.056-0.213-1.395c-0.142-0.34-0.329-0.592-0.558-0.756
	c-0.23-0.164-0.482-0.262-0.755-0.295c-0.274-0.033-0.542-0.049-0.805-0.049h-0.591V3.37c0.525,0,1.252,0.022,2.184,0.066
	c0.93,0.044,1.898,0.066,2.906,0.066c0.985,0,1.893-0.021,2.725-0.066c0.832-0.043,1.685-0.066,2.561-0.066
	c1.029,0,2.014,0.082,2.956,0.246c0.94,0.164,1.773,0.46,2.496,0.887c0.723,0.426,1.297,1.018,1.724,1.773
	c0.426,0.755,0.641,1.713,0.641,2.873c0,0.745-0.115,1.413-0.345,2.004s-0.553,1.128-0.969,1.609
	c-0.415,0.483-0.897,0.898-1.444,1.249c-0.547,0.35-1.149,0.656-1.806,0.919l5.615,8.407c0.241,0.35,0.465,0.641,0.674,0.87
	c0.208,0.23,0.432,0.415,0.673,0.557C305.133,24.907,305.401,25.023,305.697,25.109z M297.766,11.777
	c0.219-0.657,0.329-1.467,0.329-2.43c0-1.467-0.433-2.632-1.298-3.497c-0.865-0.865-2.03-1.298-3.497-1.298
	c-0.504,0-0.881,0.017-1.133,0.049c-0.252,0.033-0.497,0.061-0.738,0.082v9.787h1.609c0.832,0,1.56-0.088,2.184-0.263
	c0.624-0.175,1.15-0.46,1.576-0.854C297.224,12.959,297.547,12.434,297.766,11.777z M330.573,25.307v0.985
	c-0.746-0.043-1.49-0.077-2.233-0.099c-0.744-0.021-1.51-0.032-2.298-0.032c-0.81,0-1.626,0.011-2.448,0.032
	c-0.821,0.022-1.647,0.055-2.479,0.099v-0.985h0.362c0.196,0,0.41-0.011,0.641-0.033c0.229-0.021,0.447-0.066,0.655-0.131
	c0.209-0.066,0.384-0.164,0.526-0.296c0.142-0.131,0.214-0.295,0.214-0.492c0-0.219-0.066-0.536-0.198-0.952
	c-0.131-0.415-0.284-0.887-0.46-1.412l-1.281-3.81h-7.455l-1.051,3.416c-0.175,0.569-0.34,1.062-0.493,1.478
	c-0.153,0.416-0.23,0.777-0.23,1.084c0,0.242,0.077,0.438,0.23,0.592s0.351,0.268,0.592,0.344c0.241,0.078,0.509,0.132,0.805,0.164
	c0.295,0.033,0.574,0.05,0.837,0.05h0.361v0.985c-0.656-0.043-1.319-0.077-1.986-0.099c-0.668-0.021-1.33-0.032-1.987-0.032
	c-0.591,0-1.182,0.011-1.773,0.032c-0.592,0.022-1.182,0.055-1.774,0.099v-0.985h0.198c0.634,0,1.209-0.181,1.724-0.543
	c0.514-0.361,0.892-0.892,1.132-1.592l5.254-15.073c0.219-0.613,0.449-1.291,0.69-2.036c0.24-0.744,0.415-1.423,0.525-2.036
	c0.525-0.175,1.078-0.405,1.659-0.689c0.58-0.284,1.023-0.526,1.33-0.723c0.131-0.043,0.219-0.066,0.262-0.066
	c0.111,0,0.186,0.032,0.231,0.098c0.042,0.132,0.092,0.269,0.148,0.411c0.054,0.143,0.103,0.28,0.148,0.411l6.042,17.175
	c0.198,0.569,0.395,1.144,0.593,1.724c0.196,0.581,0.404,1.122,0.624,1.625c0.371,0.876,1.095,1.314,2.167,1.314H330.573z
	 M320.884,16.342l-3.021-9.294h-0.066l-3.054,9.294H320.884z"/>
<path fill="#EB0029" d="M165.286,43.289l-9.082,11.321l9.082,11.321l9.082-11.321L165.286,43.289z M165.286,59.711
	c-2.817,0-5.1-2.283-5.1-5.1c0-2.817,2.283-5.1,5.1-5.1c2.817,0,5.1,2.284,5.1,5.1C170.387,57.427,168.103,59.711,165.286,59.711z"
	/>
</svg>
